<mxfile host="www.draw.io" modified="2020-02-27T11:43:14.100Z" agent="Mozilla/5.0 (Windows NT 10.0; Win64; x64) AppleWebKit/537.36 (KHTML, like Gecko) Chrome/79.0.3945.130 Safari/537.36" etag="AbwLjFxMUK9TkSE_aQwV" version="12.7.8" type="github">
  <diagram id="1FjtXHd2-G4CNGwkfTRG" name="Page-1">
    <mxGraphModel dx="1038" dy="548" grid="1" gridSize="10" guides="1" tooltips="1" connect="1" arrows="1" fold="1" page="1" pageScale="1" pageWidth="827" pageHeight="1169" math="0" shadow="0">
      <root>
        <mxCell id="0" />
        <mxCell id="1" parent="0" />
        <mxCell id="bccA1siXlVKlh0kGnt58-1" value="" style="whiteSpace=wrap;html=1;aspect=fixed;" parent="1" vertex="1">
          <mxGeometry x="140" y="80" width="560" height="560" as="geometry" />
        </mxCell>
        <mxCell id="bccA1siXlVKlh0kGnt58-2" value="Admin" style="shape=umlActor;verticalLabelPosition=bottom;labelBackgroundColor=#ffffff;verticalAlign=top;html=1;outlineConnect=0;" parent="1" vertex="1">
          <mxGeometry x="80" y="340" width="30" height="60" as="geometry" />
        </mxCell>
        <mxCell id="bccA1siXlVKlh0kGnt58-3" value="Felhasználó" style="shape=umlActor;verticalLabelPosition=bottom;labelBackgroundColor=#ffffff;verticalAlign=top;html=1;outlineConnect=0;" parent="1" vertex="1">
          <mxGeometry x="40" y="145" width="30" height="60" as="geometry" />
        </mxCell>
        <mxCell id="bccA1siXlVKlh0kGnt58-4" value="Rendelők felvétele" style="ellipse;whiteSpace=wrap;html=1;" parent="1" vertex="1">
          <mxGeometry x="270" y="440" width="130" height="50" as="geometry" />
        </mxCell>
        <mxCell id="bccA1siXlVKlh0kGnt58-5" value="" style="endArrow=none;html=1;entryX=0;entryY=0.5;entryDx=0;entryDy=0;exitX=0.5;exitY=0.5;exitDx=0;exitDy=0;exitPerimeter=0;" parent="1" source="bccA1siXlVKlh0kGnt58-2" target="bccA1siXlVKlh0kGnt58-4" edge="1">
          <mxGeometry width="50" height="50" relative="1" as="geometry">
            <mxPoint x="390" y="360" as="sourcePoint" />
            <mxPoint x="440" y="310" as="targetPoint" />
            <Array as="points" />
          </mxGeometry>
        </mxCell>
        <mxCell id="bccA1siXlVKlh0kGnt58-6" value="Nyitvatartás hozzáadása" style="ellipse;whiteSpace=wrap;html=1;" parent="1" vertex="1">
          <mxGeometry x="225" y="510" width="100" height="30" as="geometry" />
        </mxCell>
        <mxCell id="bccA1siXlVKlh0kGnt58-7" value="helyszín hozzáadása" style="ellipse;whiteSpace=wrap;html=1;" parent="1" vertex="1">
          <mxGeometry x="350" y="510" width="90" height="30" as="geometry" />
        </mxCell>
        <mxCell id="bccA1siXlVKlh0kGnt58-8" value="Információ szerzés" style="ellipse;whiteSpace=wrap;html=1;" parent="1" vertex="1">
          <mxGeometry x="354" y="90" width="120" height="50" as="geometry" />
        </mxCell>
        <mxCell id="bccA1siXlVKlh0kGnt58-9" value="Rendelők listázása" style="ellipse;whiteSpace=wrap;html=1;" parent="1" vertex="1">
          <mxGeometry x="220" y="160" width="110" height="30" as="geometry" />
        </mxCell>
        <mxCell id="bccA1siXlVKlh0kGnt58-10" value="Térképes megjelenítés" style="ellipse;whiteSpace=wrap;html=1;" parent="1" vertex="1">
          <mxGeometry x="335" y="160" width="105" height="30" as="geometry" />
        </mxCell>
        <mxCell id="bccA1siXlVKlh0kGnt58-11" value="Nyitvatartás" style="ellipse;whiteSpace=wrap;html=1;" parent="1" vertex="1">
          <mxGeometry x="450" y="160" width="70" height="30" as="geometry" />
        </mxCell>
        <mxCell id="bccA1siXlVKlh0kGnt58-12" value="Orvos adatai" style="ellipse;whiteSpace=wrap;html=1;" parent="1" vertex="1">
          <mxGeometry x="530" y="160" width="80" height="30" as="geometry" />
        </mxCell>
        <mxCell id="bccA1siXlVKlh0kGnt58-13" value="Jelentkezés kezelésre" style="ellipse;whiteSpace=wrap;html=1;" parent="1" vertex="1">
          <mxGeometry x="354" y="240" width="120" height="50" as="geometry" />
        </mxCell>
        <mxCell id="bccA1siXlVKlh0kGnt58-14" value="Időpontos foglalás" style="ellipse;whiteSpace=wrap;html=1;" parent="1" vertex="1">
          <mxGeometry x="290" y="310" width="110" height="30" as="geometry" />
        </mxCell>
        <mxCell id="bccA1siXlVKlh0kGnt58-15" value="Sorszám igénylése" style="ellipse;whiteSpace=wrap;html=1;" parent="1" vertex="1">
          <mxGeometry x="415" y="310" width="115" height="30" as="geometry" />
        </mxCell>
        <mxCell id="bccA1siXlVKlh0kGnt58-16" value="" style="endArrow=classic;html=1;exitX=0.5;exitY=0;exitDx=0;exitDy=0;entryX=0;entryY=1;entryDx=0;entryDy=0;" parent="1" source="bccA1siXlVKlh0kGnt58-14" target="bccA1siXlVKlh0kGnt58-13" edge="1">
          <mxGeometry width="50" height="50" relative="1" as="geometry">
            <mxPoint x="390" y="360" as="sourcePoint" />
            <mxPoint x="440" y="310" as="targetPoint" />
          </mxGeometry>
        </mxCell>
        <mxCell id="bccA1siXlVKlh0kGnt58-17" value="" style="endArrow=classic;html=1;entryX=1;entryY=1;entryDx=0;entryDy=0;exitX=0.5;exitY=0;exitDx=0;exitDy=0;" parent="1" source="bccA1siXlVKlh0kGnt58-15" target="bccA1siXlVKlh0kGnt58-13" edge="1">
          <mxGeometry width="50" height="50" relative="1" as="geometry">
            <mxPoint x="390" y="360" as="sourcePoint" />
            <mxPoint x="440" y="310" as="targetPoint" />
          </mxGeometry>
        </mxCell>
        <mxCell id="bccA1siXlVKlh0kGnt58-18" value="" style="endArrow=none;html=1;exitX=0.5;exitY=0.5;exitDx=0;exitDy=0;exitPerimeter=0;entryX=0;entryY=0;entryDx=0;entryDy=0;" parent="1" source="bccA1siXlVKlh0kGnt58-3" target="bccA1siXlVKlh0kGnt58-8" edge="1">
          <mxGeometry width="50" height="50" relative="1" as="geometry">
            <mxPoint x="390" y="360" as="sourcePoint" />
            <mxPoint x="440" y="310" as="targetPoint" />
          </mxGeometry>
        </mxCell>
        <mxCell id="bccA1siXlVKlh0kGnt58-19" value="" style="endArrow=none;html=1;exitX=0.5;exitY=0.5;exitDx=0;exitDy=0;exitPerimeter=0;entryX=0;entryY=0;entryDx=0;entryDy=0;" parent="1" source="bccA1siXlVKlh0kGnt58-3" target="bccA1siXlVKlh0kGnt58-13" edge="1">
          <mxGeometry width="50" height="50" relative="1" as="geometry">
            <mxPoint x="390" y="360" as="sourcePoint" />
            <mxPoint x="440" y="310" as="targetPoint" />
          </mxGeometry>
        </mxCell>
        <mxCell id="bccA1siXlVKlh0kGnt58-20" value="" style="endArrow=classic;html=1;entryX=0;entryY=1;entryDx=0;entryDy=0;exitX=1;exitY=0;exitDx=0;exitDy=0;" parent="1" source="bccA1siXlVKlh0kGnt58-9" target="bccA1siXlVKlh0kGnt58-8" edge="1">
          <mxGeometry width="50" height="50" relative="1" as="geometry">
            <mxPoint x="390" y="360" as="sourcePoint" />
            <mxPoint x="440" y="310" as="targetPoint" />
          </mxGeometry>
        </mxCell>
        <mxCell id="bccA1siXlVKlh0kGnt58-21" value="" style="endArrow=classic;html=1;entryX=0.5;entryY=1;entryDx=0;entryDy=0;exitX=0.5;exitY=0;exitDx=0;exitDy=0;" parent="1" source="bccA1siXlVKlh0kGnt58-10" target="bccA1siXlVKlh0kGnt58-8" edge="1">
          <mxGeometry width="50" height="50" relative="1" as="geometry">
            <mxPoint x="390" y="360" as="sourcePoint" />
            <mxPoint x="440" y="310" as="targetPoint" />
          </mxGeometry>
        </mxCell>
        <mxCell id="bccA1siXlVKlh0kGnt58-22" value="" style="endArrow=classic;html=1;exitX=0.5;exitY=0;exitDx=0;exitDy=0;entryX=0.607;entryY=0.996;entryDx=0;entryDy=0;entryPerimeter=0;" parent="1" source="bccA1siXlVKlh0kGnt58-11" target="bccA1siXlVKlh0kGnt58-8" edge="1">
          <mxGeometry width="50" height="50" relative="1" as="geometry">
            <mxPoint x="390" y="360" as="sourcePoint" />
            <mxPoint x="440" y="310" as="targetPoint" />
          </mxGeometry>
        </mxCell>
        <mxCell id="bccA1siXlVKlh0kGnt58-23" value="" style="endArrow=classic;html=1;entryX=1;entryY=1;entryDx=0;entryDy=0;exitX=0;exitY=0;exitDx=0;exitDy=0;" parent="1" source="bccA1siXlVKlh0kGnt58-12" target="bccA1siXlVKlh0kGnt58-8" edge="1">
          <mxGeometry width="50" height="50" relative="1" as="geometry">
            <mxPoint x="390" y="360" as="sourcePoint" />
            <mxPoint x="440" y="310" as="targetPoint" />
          </mxGeometry>
        </mxCell>
        <mxCell id="bccA1siXlVKlh0kGnt58-24" value="" style="endArrow=classic;html=1;entryX=0;entryY=1;entryDx=0;entryDy=0;exitX=0.5;exitY=0;exitDx=0;exitDy=0;" parent="1" source="bccA1siXlVKlh0kGnt58-6" target="bccA1siXlVKlh0kGnt58-4" edge="1">
          <mxGeometry width="50" height="50" relative="1" as="geometry">
            <mxPoint x="390" y="360" as="sourcePoint" />
            <mxPoint x="440" y="310" as="targetPoint" />
          </mxGeometry>
        </mxCell>
        <mxCell id="bccA1siXlVKlh0kGnt58-25" value="" style="endArrow=classic;html=1;exitX=0.5;exitY=0;exitDx=0;exitDy=0;entryX=1;entryY=1;entryDx=0;entryDy=0;" parent="1" source="bccA1siXlVKlh0kGnt58-7" target="bccA1siXlVKlh0kGnt58-4" edge="1">
          <mxGeometry width="50" height="50" relative="1" as="geometry">
            <mxPoint x="390" y="360" as="sourcePoint" />
            <mxPoint x="440" y="310" as="targetPoint" />
          </mxGeometry>
        </mxCell>
        <mxCell id="bccA1siXlVKlh0kGnt58-27" value="Ellátás típusa" style="ellipse;whiteSpace=wrap;html=1;" parent="1" vertex="1">
          <mxGeometry x="620" y="160" width="70" height="30" as="geometry" />
        </mxCell>
        <mxCell id="bccA1siXlVKlh0kGnt58-28" value="" style="endArrow=classic;html=1;entryX=1;entryY=0.5;entryDx=0;entryDy=0;exitX=0;exitY=0;exitDx=0;exitDy=0;" parent="1" source="bccA1siXlVKlh0kGnt58-27" target="bccA1siXlVKlh0kGnt58-8" edge="1">
          <mxGeometry width="50" height="50" relative="1" as="geometry">
            <mxPoint x="390" y="360" as="sourcePoint" />
            <mxPoint x="440" y="310" as="targetPoint" />
          </mxGeometry>
        </mxCell>
        <mxCell id="bccA1siXlVKlh0kGnt58-29" value="Orvos" style="shape=umlActor;verticalLabelPosition=bottom;labelBackgroundColor=#ffffff;verticalAlign=top;html=1;outlineConnect=0;" parent="1" vertex="1">
          <mxGeometry x="750" y="310" width="30" height="60" as="geometry" />
        </mxCell>
        <mxCell id="bccA1siXlVKlh0kGnt58-30" value="Várólista megtekintése" style="ellipse;whiteSpace=wrap;html=1;" parent="1" vertex="1">
          <mxGeometry x="530" y="390" width="110" height="50" as="geometry" />
        </mxCell>
        <mxCell id="bccA1siXlVKlh0kGnt58-31" value="" style="endArrow=none;html=1;entryX=0.5;entryY=0.5;entryDx=0;entryDy=0;entryPerimeter=0;exitX=1;exitY=0;exitDx=0;exitDy=0;" parent="1" source="bccA1siXlVKlh0kGnt58-30" target="bccA1siXlVKlh0kGnt58-29" edge="1">
          <mxGeometry width="50" height="50" relative="1" as="geometry">
            <mxPoint x="390" y="360" as="sourcePoint" />
            <mxPoint x="440" y="310" as="targetPoint" />
          </mxGeometry>
        </mxCell>
        <mxCell id="2m3kgfS-SJF2Qy2qfhe2-1" value="Orvosok beosztása" style="ellipse;whiteSpace=wrap;html=1;" vertex="1" parent="1">
          <mxGeometry x="450" y="510" width="100" height="30" as="geometry" />
        </mxCell>
        <mxCell id="2m3kgfS-SJF2Qy2qfhe2-2" value="" style="endArrow=classic;html=1;exitX=0;exitY=0;exitDx=0;exitDy=0;entryX=1;entryY=0.5;entryDx=0;entryDy=0;" edge="1" parent="1" source="2m3kgfS-SJF2Qy2qfhe2-1" target="bccA1siXlVKlh0kGnt58-4">
          <mxGeometry width="50" height="50" relative="1" as="geometry">
            <mxPoint x="390" y="370" as="sourcePoint" />
            <mxPoint x="440" y="320" as="targetPoint" />
          </mxGeometry>
        </mxCell>
        <mxCell id="2m3kgfS-SJF2Qy2qfhe2-6" value="sorszám begyüjtése" style="ellipse;whiteSpace=wrap;html=1;" vertex="1" parent="1">
          <mxGeometry x="140" y="155" width="70" height="40" as="geometry" />
        </mxCell>
        <mxCell id="2m3kgfS-SJF2Qy2qfhe2-7" value="" style="endArrow=classic;html=1;exitX=1;exitY=0;exitDx=0;exitDy=0;entryX=0;entryY=0.5;entryDx=0;entryDy=0;" edge="1" parent="1" source="2m3kgfS-SJF2Qy2qfhe2-6" target="bccA1siXlVKlh0kGnt58-8">
          <mxGeometry width="50" height="50" relative="1" as="geometry">
            <mxPoint x="390" y="370" as="sourcePoint" />
            <mxPoint x="440" y="320" as="targetPoint" />
          </mxGeometry>
        </mxCell>
      </root>
    </mxGraphModel>
  </diagram>
</mxfile>
